<?xml version="1.0" standalone="no"?>
<!DOCTYPE svg PUBLIC "-//W3C//DTD SVG 20010904//EN"
 "http://www.w3.org/TR/2001/REC-SVG-20010904/DTD/svg10.dtd">
<svg version="1.0" xmlns="http://www.w3.org/2000/svg"
 width="512.000000pt" height="512.000000pt" viewBox="0 0 512.000000 512.000000"
 preserveAspectRatio="xMidYMid meet">
<metadata>
Created by potrace 1.11, written by Peter Selinger 2001-2013
</metadata>
<g transform="translate(0.000000,512.000000) scale(0.100000,-0.100000)"
fill="#000000" stroke="none">
<path d="M2510 5003 c0 -6 -5 -15 -12 -19 -7 -4 -8 -3 -4 4 4 7 2 12 -3 12 -6
0 -11 -7 -11 -16 0 -8 -4 -12 -10 -9 -5 3 -10 2 -10 -4 0 -6 -7 -8 -15 -5 -8
4 -15 1 -15 -6 0 -6 -4 -9 -9 -5 -5 3 -12 1 -16 -4 -3 -6 -12 -8 -20 -4 -10 3
-13 1 -10 -9 3 -8 -2 -21 -12 -29 -17 -13 -17 -13 -3 5 14 18 14 18 -7 6 -12
-8 -20 -17 -17 -21 2 -4 -3 -10 -12 -13 -8 -3 -12 -10 -9 -16 4 -6 -1 -7 -11
-3 -12 4 -15 3 -10 -5 4 -7 2 -12 -4 -12 -6 0 -8 -4 -5 -10 3 -5 -3 -10 -15
-10 -12 0 -18 -4 -15 -11 4 -6 -1 -17 -11 -25 -11 -9 -13 -12 -5 -8 9 5 12 3
7 -4 -4 -7 -14 -12 -22 -12 -8 0 -12 -5 -9 -10 4 -6 3 -9 -2 -8 -4 1 -25 -1
-45 -5 -37 -8 -41 -12 -41 -49 0 -10 -6 -18 -13 -18 -8 0 -11 -6 -7 -17 4 -10
2 -14 -5 -9 -6 3 -13 -3 -17 -14 -3 -11 -11 -20 -16 -20 -6 0 -7 6 -4 13 4 6
0 3 -9 -8 -8 -11 -20 -25 -25 -31 -6 -8 -5 -16 2 -23 8 -8 7 -11 -5 -11 -9 0
-20 -5 -24 -12 -4 -7 -3 -8 4 -4 22 13 12 -4 -19 -33 -17 -16 -31 -33 -31 -38
-1 -20 -11 -32 -22 -26 -6 3 -8 3 -4 -1 10 -11 -12 -67 -24 -60 -5 3 -12 -3
-15 -15 -3 -12 -10 -21 -15 -21 -5 0 -8 -8 -6 -17 2 -10 -2 -17 -7 -16 -10 2
-12 -7 -17 -77 -1 -16 -5 -30 -10 -30 -4 0 -8 4 -8 8 0 5 -10 8 -22 7 -13 -2
-22 -8 -21 -14 2 -6 -1 -11 -7 -11 -5 0 -7 -7 -4 -15 4 -8 1 -15 -6 -15 -6 0
-8 -4 -5 -10 3 -5 2 -17 -3 -26 -6 -11 -11 -13 -16 -5 -9 14 -27 -3 -50 -47
-9 -18 -21 -32 -26 -32 -6 0 -10 -9 -10 -21 0 -11 -4 -17 -10 -14 -5 3 -10 2
-10 -3 0 -6 -8 -9 -17 -8 -13 1 -18 -6 -17 -26 0 -16 -2 -28 -5 -28 -3 0 -5
-20 -4 -43 2 -42 0 -44 -24 -39 -15 3 -20 7 -13 12 8 5 5 9 -9 13 -12 3 -19 1
-15 -4 3 -5 1 -9 -5 -9 -6 0 -8 -6 -5 -14 3 -8 0 -17 -7 -22 -8 -4 -10 -3 -5
4 5 9 0 9 -19 2 -15 -6 -30 -8 -34 -5 -5 2 -7 -7 -5 -20 1 -14 -1 -25 -5 -25
-4 0 -8 -9 -9 -20 -1 -11 -3 -29 -4 -40 -1 -11 -6 -20 -9 -20 -4 0 -6 -12 -3
-26 5 -27 -21 -78 -35 -70 -5 3 -8 -6 -7 -21 1 -20 -4 -27 -23 -30 -33 -5 -34
-6 -36 -60 -3 -64 -4 -65 -14 -59 -5 4 -11 2 -13 -2 -1 -5 -12 0 -23 11 -11
11 -13 16 -5 12 13 -8 13 -6 2 8 -8 9 -11 21 -7 27 3 5 1 10 -5 10 -6 0 -8 6
-5 13 4 6 -1 3 -9 -7 -9 -11 -16 -26 -16 -34 0 -7 -4 -11 -8 -8 -5 3 -8 -5 -8
-17 1 -12 -3 -22 -9 -22 -5 0 -15 -4 -22 -8 -6 -4 -14 -3 -18 2 -3 6 -13 7
-21 4 -13 -5 -13 -7 -2 -14 11 -7 11 -9 0 -9 -9 0 -11 -7 -7 -20 4 -12 2 -20
-5 -20 -6 0 -8 -4 -5 -10 3 -6 -1 -7 -9 -4 -9 3 -16 10 -16 15 0 5 -8 4 -19
-3 -12 -7 -18 -21 -17 -40 1 -16 -1 -31 -6 -34 -5 -3 -6 -10 -3 -15 4 -5 -2
-9 -12 -9 -15 0 -15 -2 -4 -9 12 -8 12 -12 2 -24 -8 -11 -9 -17 -1 -22 8 -5 8
-11 -1 -21 -9 -11 -9 -18 -1 -26 7 -7 12 -25 12 -41 l0 -29 -26 17 c-27 17
-27 17 -20 -8 4 -19 1 -31 -14 -45 -19 -17 -30 -46 -32 -79 -1 -7 -5 -13 -10
-13 -4 0 -8 -7 -8 -15 0 -8 -4 -15 -10 -15 -5 0 -18 -9 -29 -21 -11 -12 -24
-18 -30 -15 -7 4 -8 1 -5 -8 4 -10 -1 -18 -11 -22 -13 -5 -14 -9 -3 -15 11 -7
11 -9 -1 -9 -7 0 -11 -6 -7 -15 3 -8 1 -15 -5 -15 -6 0 -7 -4 -4 -10 3 -5 2
-10 -2 -10 -5 0 -14 -9 -20 -20 -11 -17 -10 -19 5 -14 9 2 7 -1 -6 -7 -19 -11
-27 -27 -23 -51 0 -4 -6 -5 -15 -1 -8 3 -14 2 -13 -3 3 -20 -2 -35 -10 -30 -5
3 -15 -9 -22 -27 -7 -17 -15 -36 -17 -41 -3 -5 2 -6 9 -2 8 4 3 -1 -10 -12
-13 -11 -25 -32 -26 -48 -2 -16 -3 -32 -4 -36 -3 -22 -63 0 -69 25 -4 14 -16
9 -23 -10 -4 -10 -8 -14 -8 -9 -1 5 -10 -1 -20 -13 -11 -12 -22 -22 -25 -21
-15 2 -62 -14 -71 -25 -24 -26 -32 -51 -24 -73 5 -13 13 -21 18 -18 12 8 22
-36 11 -49 -6 -7 -6 -16 -2 -20 4 -5 -1 -5 -10 -2 -10 3 -17 3 -17 -1 3 -20
-2 -32 -15 -32 -8 0 -28 -14 -45 -31 -17 -17 -35 -28 -40 -25 -5 3 -12 -1 -15
-10 -3 -8 -11 -12 -17 -8 -8 4 -9 3 -5 -4 4 -7 2 -12 -4 -12 -6 0 -8 -5 -4
-12 4 -6 3 -8 -3 -5 -6 4 -22 -4 -36 -17 -14 -13 -28 -21 -31 -18 -3 3 -6 -3
-6 -13 0 -15 -2 -16 -17 -4 -11 10 -14 10 -9 2 4 -7 3 -13 -3 -13 -6 0 -7 -7
-4 -17 4 -11 3 -14 -6 -9 -15 10 8 -34 24 -46 6 -5 4 -8 -5 -8 -9 -1 -6 -5 8
-10 13 -6 22 -18 22 -30 0 -12 4 -19 9 -16 10 7 33 -42 26 -55 -3 -5 2 -6 11
-2 11 4 15 3 11 -4 -4 -6 0 -19 9 -27 8 -9 12 -16 7 -16 -4 0 -1 -5 7 -10 8
-5 15 -15 15 -22 1 -7 6 -12 13 -11 7 2 11 0 11 -5 -4 -22 2 -42 11 -37 5 3
10 -1 10 -10 0 -9 4 -13 10 -10 5 3 10 1 10 -6 0 -7 3 -9 6 -6 4 4 22 -11 42
-33 19 -22 41 -40 48 -40 8 0 14 -5 14 -11 0 -5 4 -7 10 -4 5 3 10 1 10 -5 0
-6 4 -8 10 -5 6 4 7 -1 3 -11 -4 -12 -3 -15 5 -10 7 4 12 2 12 -4 0 -6 4 -9 9
-6 5 3 11 -1 15 -9 3 -8 12 -15 20 -15 8 0 18 -9 21 -21 5 -14 12 -18 23 -14
13 5 14 3 5 -6 -14 -14 -6 -39 13 -39 8 0 14 -8 14 -17 0 -9 3 -14 6 -10 8 7
34 -17 34 -32 0 -6 7 -8 15 -5 11 5 13 2 8 -12 -5 -13 -3 -16 10 -11 11 4 17
1 17 -9 0 -8 5 -12 10 -9 6 3 13 0 16 -9 3 -8 14 -13 25 -11 10 2 19 0 19 -5
0 -5 20 -8 45 -6 33 2 50 -2 65 -16 13 -13 20 -14 20 -6 0 9 3 9 10 -2 5 -8
17 -15 27 -15 10 -1 17 -6 16 -12 -2 -7 6 -10 16 -8 11 2 22 -3 25 -12 3 -8
12 -13 19 -10 6 2 18 -3 25 -12 11 -13 12 -13 6 -1 -6 11 -2 10 13 -3 11 -9
23 -14 26 -10 4 3 7 1 7 -5 0 -7 7 -12 16 -12 8 0 12 -4 9 -10 -3 -5 -2 -10 3
-10 13 0 62 -47 55 -54 -3 -3 4 -4 16 -1 11 2 28 -3 36 -11 8 -8 24 -16 34
-17 11 -1 18 -3 16 -5 -2 -2 5 -12 16 -23 16 -16 22 -37 18 -65 0 -4 5 -10 11
-14 7 -4 13 -19 13 -33 1 -14 4 -24 6 -21 2 2 12 -5 21 -17 10 -11 22 -19 26
-18 27 5 84 -2 80 -10 -3 -5 6 -12 21 -16 19 -4 23 -9 14 -14 -10 -6 -9 -10 4
-15 9 -3 13 -11 9 -18 -5 -8 -2 -9 10 -5 10 4 15 3 11 -3 -3 -6 -1 -10 4 -10
6 0 11 -7 11 -16 0 -8 5 -12 10 -9 5 3 10 0 10 -8 0 -22 74 -77 105 -77 8 0
15 -4 15 -10 0 -5 11 -10 24 -10 14 0 28 -5 31 -10 4 -6 11 -8 16 -5 5 4 9 -1
9 -9 0 -8 5 -18 12 -22 8 -5 9 -1 4 12 -4 11 6 5 24 -15 16 -18 30 -27 30 -20
1 9 4 8 11 -4 6 -10 22 -22 35 -27 13 -5 24 -17 25 -27 0 -10 2 -26 4 -35 2
-10 -2 -18 -8 -18 -8 0 -8 -3 -2 -8 6 -4 10 -14 10 -22 0 -8 5 -21 12 -28 7
-8 10 -19 6 -25 -4 -6 0 -8 10 -4 9 3 19 2 22 -3 4 -6 11 -10 16 -10 6 0 7 5
3 12 -4 7 -3 8 4 4 7 -4 12 -3 12 3 0 6 7 8 15 5 8 -4 12 -10 9 -15 -3 -5 -10
-6 -16 -3 -8 5 -8 -2 -3 -22 4 -16 8 -34 8 -41 0 -7 4 -10 9 -7 7 5 10 -3 7
-22 0 -4 5 -11 13 -15 7 -5 8 -9 3 -9 -6 0 -11 -19 -11 -43 1 -47 30 -87 65
-87 11 0 22 -6 24 -12 4 -10 6 -10 6 0 1 7 6 10 12 6 6 -4 24 -8 40 -9 28 -2
29 -1 26 32 -2 19 -10 39 -18 44 -8 5 -10 9 -5 9 5 0 4 6 -1 13 -6 6 -9 20 -8
29 2 10 -2 16 -8 15 -6 -1 -12 6 -15 15 -5 23 46 17 65 -7 7 -11 13 -15 13
-10 0 5 4 5 10 -1 5 -5 10 -27 11 -49 1 -22 7 -46 13 -54 9 -12 8 -13 -4 -6
-13 8 -13 7 0 -11 8 -10 23 -29 34 -41 11 -13 16 -23 12 -23 -5 0 -3 -7 4 -15
7 -8 9 -15 6 -15 -4 0 -1 -6 6 -13 8 -8 33 -13 61 -12 26 0 47 -2 47 -5 0 -3
11 -5 25 -5 14 0 25 4 25 8 0 5 5 5 10 2 6 -4 9 -1 8 6 -2 6 3 14 11 17 9 3
11 0 6 -8 -5 -9 -4 -11 3 -6 7 4 12 14 12 22 0 30 27 10 42 -31 1 -5 13 -10
26 -9 12 0 22 -3 22 -7 0 -4 16 -3 34 1 19 4 36 7 38 6 2 -2 11 6 21 16 9 10
13 18 7 18 -5 0 -10 9 -10 21 0 13 -4 18 -12 13 -8 -5 -7 0 2 11 9 11 10 16 3
11 -8 -4 -13 -1 -13 8 0 9 -4 16 -10 16 -5 0 -7 7 -4 15 4 8 2 15 -4 15 -16 0
-7 33 10 36 30 4 60 45 61 82 2 46 16 65 36 48 10 -7 12 -7 8 0 -3 6 0 11 8
11 8 0 13 -5 12 -11 -1 -6 4 -10 11 -9 6 2 12 -1 12 -6 0 -6 9 -9 20 -8 11 1
20 7 20 14 0 7 6 12 13 10 6 -1 11 6 9 15 -1 9 2 19 8 23 8 5 7 12 -2 23 -10
12 -10 14 -1 8 9 -5 11 -2 7 8 -3 9 -10 13 -15 10 -5 -3 -9 7 -9 21 0 14 4 24
9 20 5 -3 16 2 24 10 18 17 37 20 37 4 0 -6 10 -9 23 -7 15 2 21 9 19 21 -2 9
4 20 12 23 9 3 14 10 11 14 -3 5 4 12 16 15 13 5 18 12 14 22 -5 14 -3 14 12
2 11 -9 14 -10 9 -1 -6 11 4 17 26 13 4 0 5 6 2 14 -4 10 0 15 16 15 11 0 19
4 16 8 -3 5 9 17 26 27 18 10 28 12 23 5 -6 -10 -3 -10 10 -2 14 7 23 6 33 -5
8 -8 23 -12 33 -10 12 3 19 0 19 -10 0 -12 2 -12 16 1 17 18 28 21 19 6 -3 -6
1 -7 9 -4 15 6 20 17 17 37 0 4 2 7 7 7 4 0 7 20 7 45 -1 25 4 45 10 46 29 2
60 10 71 20 8 7 14 6 17 -3 3 -8 6 -5 6 6 1 11 4 16 8 12 4 -3 13 4 20 16 8
15 13 18 13 8 0 -11 4 -10 16 5 8 11 17 19 19 18 3 -2 11 -3 18 -3 8 0 7 4 -3
10 -13 9 -13 10 0 11 8 1 18 1 22 0 5 0 7 5 5 12 -1 6 4 11 11 9 8 -1 11 2 7
8 -3 5 2 10 12 10 13 0 14 3 5 8 -9 6 -5 12 13 20 14 7 23 17 20 22 -3 6 -1
10 6 10 7 0 9 3 6 6 -4 4 6 18 21 32 15 13 21 21 15 18 -9 -5 -11 -2 -7 8 3 9
10 14 14 11 5 -3 11 -1 15 5 3 5 1 10 -6 10 -15 0 -2 15 14 15 7 1 11 6 10 13
-2 7 3 12 11 12 8 0 18 5 22 12 5 7 3 8 -7 3 -12 -8 -12 -6 0 8 7 9 17 15 21
12 4 -3 11 2 14 11 4 10 2 13 -7 9 -6 -4 -3 0 8 9 11 8 25 20 32 25 8 7 13 7
16 -2 3 -7 6 -6 6 4 1 9 13 24 27 34 15 9 23 11 19 4 -6 -8 -4 -10 4 -5 7 5
10 13 8 20 -3 6 4 12 14 12 11 0 19 -4 19 -9 0 -4 12 5 26 20 15 15 30 27 35
26 5 -2 9 2 9 7 0 5 6 9 13 7 6 -1 11 4 9 11 -1 8 2 11 9 6 6 -3 21 4 33 17
11 13 28 25 36 27 8 2 17 8 18 13 2 5 8 7 13 3 5 -3 12 2 15 10 3 9 12 16 20
16 8 0 14 4 14 10 0 5 3 9 8 9 19 -3 33 2 27 11 -3 5 1 10 10 10 10 0 13 5 9
12 -5 7 -3 8 6 3 8 -5 18 -1 27 10 9 14 13 15 13 4 0 -8 3 -10 8 -4 15 21 56
50 48 35 -6 -12 -5 -12 6 1 7 8 29 15 49 16 19 0 45 5 56 11 11 6 23 8 27 4 4
-3 10 -1 14 6 5 6 17 13 27 16 46 10 64 19 58 29 -4 6 0 8 10 4 11 -4 14 -2
10 9 -3 7 0 15 6 15 6 1 16 3 21 4 6 1 13 3 16 4 4 0 0 9 -7 18 -10 11 -10 14
-1 9 7 -4 12 -2 12 4 0 6 3 9 8 7 8 -4 43 29 36 36 -6 5 21 28 49 42 12 6 26
20 32 31 6 11 15 19 21 17 12 -4 13 2 17 62 3 45 14 68 28 60 5 -4 9 -1 9 5 0
6 5 8 13 4 7 -5 6 0 -3 11 -9 11 -10 16 -2 11 7 -4 15 -1 18 8 3 9 10 13 15
10 5 -3 9 0 9 5 0 6 -4 11 -8 11 -4 0 -9 10 -9 22 -1 13 -9 28 -18 34 -9 7
-16 15 -16 18 2 19 0 26 -10 26 -5 0 -7 -6 -3 -12 4 -7 -2 -4 -13 7 -11 11
-31 27 -43 35 -13 8 -32 23 -42 33 -12 11 -18 13 -18 5 -1 -7 -6 -3 -13 10 -7
12 -16 19 -20 16 -4 -4 -7 -2 -7 5 0 7 -4 9 -10 6 -5 -3 -10 -1 -10 5 0 6 -4
8 -10 5 -6 -3 -7 1 -4 9 4 11 0 16 -10 16 -22 0 -22 85 -1 106 18 19 20 35 3
31 -8 -1 -13 9 -14 23 0 14 -4 32 -9 39 -6 10 -4 12 5 6 9 -5 11 -4 6 3 -4 7
-16 12 -27 12 -11 0 -17 5 -14 10 3 6 -1 10 -10 10 -9 0 -14 4 -11 8 2 4 -4 8
-15 8 -10 0 -19 -5 -19 -10 0 -5 -9 2 -21 15 -12 13 -25 23 -30 21 -5 -1 -9 3
-9 9 0 6 -7 9 -15 5 -8 -3 -15 -1 -15 4 0 5 -16 12 -35 16 -19 3 -32 10 -29
15 3 5 -4 9 -15 9 -12 0 -20 3 -20 8 5 28 -2 43 -18 38 -18 -6 -45 6 -44 18 3
24 -1 36 -13 36 -8 0 -17 6 -19 13 -4 9 -6 9 -6 -1 -1 -7 -15 2 -32 20 -18 18
-28 26 -23 18 7 -13 5 -13 -9 -2 -9 8 -21 11 -27 7 -5 -3 -10 -1 -10 5 0 6 -4
9 -8 6 -4 -2 -7 16 -7 42 1 26 -3 63 -8 82 -5 19 -9 43 -10 52 -1 13 -5 14
-19 7 -11 -6 -16 -15 -12 -22 4 -7 4 -9 -1 -5 -4 4 -13 2 -19 -5 -6 -7 -10
-10 -9 -8 2 2 -3 11 -10 19 -8 11 -9 14 0 9 8 -5 11 0 10 13 -1 11 -7 20 -13
20 -16 0 -46 48 -39 60 3 6 1 10 -4 10 -6 0 -10 3 -10 8 4 25 -2 42 -13 36 -8
-5 -7 -1 2 10 13 17 12 18 -23 13 -20 -3 -35 -1 -32 3 3 5 0 10 -7 12 -8 3 -9
12 0 36 6 18 7 30 3 27 -5 -3 -12 2 -15 11 -4 10 -2 13 7 8 9 -6 9 -4 1 7 -6
8 -11 29 -10 47 0 19 -2 36 -7 39 -4 2 -5 9 -2 14 3 5 -1 6 -9 3 -9 -3 -17
-10 -17 -15 -2 -10 -5 -25 -9 -36 -1 -5 -3 -14 -4 -22 -1 -16 -36 -25 -36 -10
0 6 -4 7 -10 4 -5 -3 -11 0 -12 7 0 7 -2 18 -2 24 -1 6 -7 19 -15 28 -7 8 -11
22 -8 31 4 8 2 17 -3 20 -5 3 -7 12 -3 20 3 8 2 23 -2 33 -4 9 -9 28 -11 42
-2 14 -4 30 -5 37 -1 7 -7 11 -12 10 -14 -3 -38 47 -42 86 -2 18 -4 34 -5 37
-1 3 -3 10 -4 15 -1 6 -5 17 -8 25 -10 23 -21 90 -24 135 -3 56 -2 55 -19 55
-8 0 -15 5 -15 10 0 6 -5 9 -12 8 -7 -2 -13 2 -13 7 -4 27 -18 65 -23 61 -3
-3 -11 -1 -18 5 -8 7 -14 6 -20 -2 -5 -8 -3 -9 6 -4 8 5 11 4 6 -3 -4 -6 -13
-9 -21 -6 -8 4 -13 10 -10 14 3 5 -2 16 -11 24 -11 12 -12 16 -2 16 10 0 10 2
-1 9 -8 5 -10 14 -6 22 5 8 5 11 0 7 -4 -4 -14 0 -22 8 -8 8 -19 12 -24 9 -9
-6 -10 -1 -13 47 0 12 -7 23 -13 26 -7 2 -13 9 -13 16 0 7 -7 13 -15 13 -8 0
-15 -8 -15 -18 0 -9 -7 -19 -15 -23 -14 -5 -20 18 -18 72 1 6 -4 12 -9 12 -6
0 -8 8 -6 18 4 14 -1 17 -26 17 -24 0 -30 4 -28 18 2 9 -3 17 -9 17 -7 0 -10
3 -6 6 9 9 -16 32 -29 27 -7 -2 -15 1 -19 6 -3 6 -11 8 -17 5 -6 -4 -8 -3 -5
3 3 5 0 22 -8 37 -8 14 -10 24 -5 21 6 -4 10 -4 10 -1 0 3 -16 12 -36 21 -19
8 -33 19 -29 25 3 5 1 10 -4 10 -6 0 -11 12 -11 26 0 21 -4 25 -17 20 -10 -4
-14 -4 -11 0 4 4 -5 18 -21 33 -15 14 -27 34 -25 44 2 18 -16 42 -37 49 -7 2
-12 18 -12 36 0 17 -4 29 -9 26 -4 -3 -8 -1 -8 5 0 10 -19 9 -37 -2 -7 -4 -21
-3 -31 2 -11 6 -23 7 -26 3 -10 -9 -45 38 -46 61 0 9 -4 17 -8 17 -5 0 -9 7
-10 15 -1 8 -3 22 -4 30 -1 8 -5 15 -9 15 -7 0 -16 19 -21 45 -1 6 -18 18 -37
27 -20 9 -32 17 -28 17 4 1 2 7 -5 15 -7 8 -16 12 -21 9 -4 -2 -10 3 -13 11
-3 9 -10 13 -15 10 -5 -3 -9 0 -9 6 0 6 -4 8 -10 5 -5 -3 -10 -1 -10 6 0 7 -3
9 -7 6 -3 -4 -12 2 -20 13 -8 12 -20 17 -30 13 -10 -4 -14 -2 -10 4 4 6 0 14
-9 17 -10 4 -13 2 -8 -6 5 -7 3 -8 -5 -4 -7 5 -10 13 -8 20 3 7 -8 11 -29 11
-20 0 -34 -5 -34 -12z m2310 -3177 c0 -2 -8 -10 -17 -17 -16 -13 -17 -12 -4 4
13 16 21 21 21 13z m-4350 -126 c0 -5 -2 -10 -4 -10 -3 0 -8 5 -11 10 -3 6 -1
10 4 10 6 0 11 -4 11 -10z"/>
<path d="M4765 1770 c-3 -6 1 -7 9 -4 18 7 21 14 7 14 -6 0 -13 -4 -16 -10z"/>
</g>
</svg>
